Coordinates
version=1
nRows=15
nColumns=46
inDegrees=yes

Units are S.I. units (second, meters, Newtons, ...)
Angles are in degrees.

endheader
time	pelvis_tilt	pelvis_list	pelvis_rotation	pelvis_tx	pelvis_ty	pelvis_tz	bb_angle	bb_tx	bb_ty	bb_tz	hip_flexion_r	hip_adduction_r	hip_rotation_r	knee_angle_r	knee_angle_r_beta	ankle_angle_r	subtalar_angle_r	mtp_angle_r	crank_angle_r	hip_flexion_l	hip_adduction_l	hip_rotation_l	knee_angle_l	knee_angle_l_beta	ankle_angle_l	subtalar_angle_l	mtp_angle_l	crank_angle_l	lumbar_extension	lumbar_bending	lumbar_rotation	arm_flex_r	arm_add_r	arm_rot_r	elbow_flex_r	pro_sup_r	wrist_flex_r	wrist_dev_r	arm_flex_l	arm_add_l	arm_rot_l	elbow_flex_l	pro_sup_l	wrist_flex_l	wrist_dev_l
      2.50000000	    -13.60718400	     -1.13713314	      2.30629315	      0.18139902	      1.13379780	     -0.21653075	      0.00000000	      0.50000000	      0.00000000	      0.25000000	     67.89653805	      0.58758311	      6.00357854	    105.44222723	      1.84031404	     -7.07506550	    -14.34038854	      0.00000000	      0.00000000	     39.68638766	     -4.31438375	      4.18104069	     27.07636318	      0.47257169	     -4.85677047	     -2.24250191	      0.00000000	      0.00000000	    -60.33274202	      1.84578930	     -8.25193212	     87.69028917	     -9.36207992	     50.33698254	     45.28303243	     46.14766459	      0.00000000	      0.00000000	     76.58875584	    -29.57263454	     29.42230658	     63.40136734	     49.43815090	      0.00000000	      0.00000000
      2.50500000	    -13.28583145	     -1.38612947	      1.32001651	      0.18125454	      1.13390532	     -0.21704864	      0.00000000	      0.50000000	      0.00000000	      0.25000000	     68.91554102	      1.50132292	      6.27779956	    106.71421573	      1.86251442	     -5.97459031	    -13.61500004	      0.00000000	      0.00000000	     38.02449583	     -5.42918591	      2.14917743	     25.35810314	      0.44258239	     -5.19802914	     -1.83030188	      0.00000000	      0.00000000	    -60.58936113	      1.58631878	     -5.71149410	     87.62971313	    -13.04156279	     51.34244574	     48.83669637	     47.07628528	      0.00000000	      0.00000000	     77.03171315	    -26.24047339	     28.46422151	     60.91778305	     49.06369010	      0.00000000	      0.00000000
      2.51000000	    -13.37719581	     -1.67620914	      0.92183615	      0.18034218	      1.13302113	     -0.21929559	      0.00000000	      0.50000000	      0.00000000	      0.25000000	     70.46118056	      1.64513546	      6.21814624	    107.95793240	      1.88422137	     -5.13832805	    -13.46820053	      0.00000000	      0.00000000	     37.41693608	     -5.93120091	      1.52168057	     24.98753527	      0.43611476	     -7.60534605	      0.61519151	      0.00000000	      0.00000000	    -60.40591790	      2.27487456	     -4.89060714	     88.01846348	    -13.06593612	     51.27916021	     48.98629007	     47.09872363	      0.00000000	      0.00000000	     76.68034720	    -26.36643167	     28.46994528	     60.70165356	     49.04584023	      0.00000000	      0.00000000
      2.51500000	    -13.48747685	     -2.04286938	     -0.00928832	      0.17985833	      1.13269264	     -0.21988086	      0.00000000	      0.50000000	      0.00000000	      0.25000000	     71.87827565	      2.62020489	      6.37509354	    108.94012162	      1.90136381	     -3.96675483	    -12.55174937	      0.00000000	      0.00000000	     36.45073861	     -7.06182606	     -0.35843285	     23.98777607	      0.41866567	     -8.15081204	      3.10309151	      0.00000000	      0.00000000	    -60.27372609	      2.41427670	     -3.28100079	     88.10930769	    -14.25372754	     51.77790852	     50.36091072	     47.47544403	      0.00000000	      0.00000000	     76.30543312	    -25.65694315	     27.92823395	     60.25411597	     49.04695723	      0.00000000	      0.00000000
      2.52000000	    -13.51790578	     -2.12094966	     -0.55894809	      0.17921390	      1.13293445	     -0.22160408	      0.00000000	      0.50000000	      0.00000000	      0.25000000	     73.15091746	      2.87731763	      6.57671112	    109.80631937	      1.91648181	     -2.72946718	    -12.06443460	      0.00000000	      0.00000000	     35.28861348	     -7.47129243	     -1.62631152	     22.67695976	      0.39578761	     -9.56578097	      4.17472787	      0.00000000	      0.00000000	    -60.28471234	      2.75894963	     -2.41400100	     88.35325203	    -14.56707437	     51.73831923	     50.75463156	     47.54512281	      0.00000000	      0.00000000	     76.05551954	    -25.51199868	     27.67421566	     59.98847543	     49.01978012	      0.00000000	      0.00000000
      2.52500000	    -13.57027707	     -2.08322050	     -0.98921822	      0.17848966	      1.13381489	     -0.22316647	      0.00000000	      0.50000000	      0.00000000	      0.25000000	     74.37576573	      3.07258694	      6.94771593	    110.42333507	      1.92725077	     -1.94461690	    -11.10346580	      0.00000000	      0.00000000	     33.45823206	     -7.40569251	     -1.91905128	     19.96347115	      0.34842830	    -11.79072051	      4.07087076	      0.00000000	      0.00000000	    -60.39214478	      3.00422994	     -1.33306437	     88.48250974	    -15.86732785	     51.80140758	     52.31164040	     47.80578539	      0.00000000	      0.00000000	     76.07307113	    -24.50669448	     27.08844182	     59.24704574	     49.01373466	      0.00000000	      0.00000000
      2.53000000	    -13.78982412	     -2.32459821	     -1.37453540	      0.17726383	      1.13399903	     -0.22439460	      0.00000000	      0.50000000	      0.00000000	      0.25000000	     75.78584599	      3.38400567	      6.89234372	    110.91687491	      1.93586466	     -1.16597291	    -10.99647612	      0.00000000	      0.00000000	     32.80646608	     -7.86580135	     -2.82800280	     19.10234921	      0.33339889	    -13.26136472	      4.91417994	      0.00000000	      0.00000000	    -60.28590587	      3.53678171	     -0.56141107	     88.75776988	    -15.83050009	     51.68167126	     52.49493527	     47.81364599	      0.00000000	      0.00000000	     75.92469209	    -24.71541947	     27.02591051	     59.08453719	     48.99439242	      0.00000000	      0.00000000
      2.53500000	    -13.79502203	     -2.20559830	     -2.07502004	      0.17653503	      1.13480759	     -0.22538072	      0.00000000	      0.50000000	      0.00000000	      0.25000000	     76.89412821	      3.84122966	      7.36288937	    111.27501596	      1.94211540	     -0.20644263	    -10.09668579	      0.00000000	      0.00000000	     31.78024151	     -8.15231715	     -4.46192413	     18.23879141	      0.31832696	    -14.53078663	      6.06553328	      0.00000000	      0.00000000	    -60.43608294	      3.49889413	      0.25679964	     88.81911627	    -16.19724811	     51.42893378	     53.12500176	     47.85562209	      0.00000000	      0.00000000	     75.81704391	    -24.57566676	     26.92176331	     58.94715407	     49.00096595	      0.00000000	      0.00000000
      2.54000000	    -14.02142005	     -2.25115049	     -2.53246672	      0.17556401	      1.13530811	     -0.22657590	      0.00000000	      0.50000000	      0.00000000	      0.25000000	     78.16884880	      4.15667808	      7.56721995	    111.44922362	      1.94515590	      0.57471676	     -9.54518735	      0.00000000	      0.00000000	     31.27129798	     -8.43989452	     -5.63898144	     17.78858012	      0.31046929	    -15.70805554	      6.82821668	      0.00000000	      0.00000000	    -60.41750613	      3.76775746	      1.11330700	     88.90790777	    -16.68294324	     51.17226181	     54.00621625	     47.91747141	      0.00000000	      0.00000000	     75.72782342	    -24.45364517	     26.80261256	     58.87862967	     49.02519491	      0.00000000	      0.00000000
      2.54500000	    -14.26346154	     -2.37744782	     -2.75836538	      0.17431798	      1.13585320	     -0.22821478	      0.00000000	      0.50000000	      0.00000000	      0.25000000	     79.39009321	      4.18709530	      7.51352712	    111.45164719	      1.94519820	      1.24411654	     -9.35849540	      0.00000000	      0.00000000	     30.97503298	     -8.61907008	     -6.31212098	     17.61675852	      0.30747044	    -16.78705604	      7.06253336	      0.00000000	      0.00000000	    -60.38825549	      4.30685833	      1.71590656	     89.05890636	    -16.72721352	     51.01622420	     54.38044438	     47.93613123	      0.00000000	      0.00000000	     75.66228549	    -24.51817830	     26.79868031	     58.77744861	     49.02366040	      0.00000000	      0.00000000
      2.55000000	    -14.58546599	     -2.42270842	     -3.14751723	      0.17297450	      1.13630847	     -0.22930422	      0.00000000	      0.50000000	      0.00000000	      0.25000000	     80.61610345	      4.49398159	      7.67285021	    111.31690009	      1.94284642	      2.07516700	     -8.87073636	      0.00000000	      0.00000000	     30.88436108	     -8.84802012	     -7.17789125	     17.80941588	      0.31083294	    -17.40802386	      7.25960668	      0.00000000	      0.00000000	    -60.37777338	      4.50990248	      2.78768796	     89.08355865	    -17.98739417	     50.79676167	     56.26670530	     47.87785883	      0.00000000	      0.00000000	     75.97548339	    -23.87386167	     27.12665596	     58.31865872	     49.14621746	      0.00000000	      0.00000000
      2.55500000	    -14.66753074	     -2.32795420	     -3.34046575	      0.17153397	      1.13730493	     -0.23099798	      0.00000000	      0.50000000	      0.00000000	      0.25000000	     81.44794373	      4.41183227	      7.81909872	    110.96972406	      1.93678705	      2.62755842	     -8.97055693	      0.00000000	      0.00000000	     30.61789519	     -8.75516325	     -7.54441876	     18.13676701	      0.31654630	    -17.75832869	      7.22698655	      0.00000000	      0.00000000	    -60.55402667	      4.89715530	      3.16151014	     89.24666178	    -17.88243973	     50.73242631	     56.36444631	     47.87675144	      0.00000000	      0.00000000	     76.05832393	    -23.96469002	     27.09910710	     58.30087185	     49.14235415	      0.00000000	      0.00000000
      2.56000000	    -15.25938241	     -2.64416043	     -3.91560821	      0.16994414	      1.13733914	     -0.23132283	      0.00000000	      0.50000000	      0.00000000	      0.25000000	     82.68703621	      5.09653008	      7.68323866	    110.52195443	      1.92897200	      4.10638527	     -8.35704540	      0.00000000	      0.00000000	     31.28126221	     -9.47374663	     -8.44185897	     19.36427055	      0.33797028	    -17.93150678	      7.05912112	      0.00000000	      0.00000000	    -60.36945705	      5.12850982	      4.00083898	     89.24945390	    -17.91056376	     49.80702871	     57.32250940	     47.80909370	      0.00000000	      0.00000000	     76.11524277	    -24.11370456	     27.28495468	     58.27884161	     49.19115014	      0.00000000	      0.00000000
      2.56500000	    -15.48969218	     -2.67800641	     -4.39323565	      0.16843425	      1.13813383	     -0.23213402	      0.00000000	      0.50000000	      0.00000000	      0.25000000	     83.37146725	      5.52198293	      7.77130746	    109.90901779	      1.91827424	      5.43388321	     -8.42534881	      0.00000000	      0.00000000	     31.36914615	     -9.67591631	     -8.72593326	     20.24416638	      0.35332736	    -18.04049914	      6.32431502	      0.00000000	      0.00000000	    -60.52678095	      5.23522484	      4.46182406	     89.35090907	    -17.77070080	     49.51424744	     57.73290551	     47.80096969	      0.00000000	      0.00000000	     76.33961334	    -24.28377313	     27.22714647	     58.22522702	     49.18256845	      0.00000000	      0.00000000
      2.57000000	    -15.96332187	     -2.91693494	     -4.84462125	      0.16671699	      1.13842505	     -0.23287958	      0.00000000	      0.50000000	      0.00000000	      0.25000000	     84.18045624	      5.90716396	      7.61354647	    109.12275137	      1.90455130	      6.93995529	     -7.77115729	      0.00000000	      0.00000000	     31.98405472	    -10.06754258	     -8.62820691	     21.65611840	      0.37797057	    -17.67475703	      5.34296925	      0.00000000	      0.00000000	    -60.53576337	      5.50516810	      5.28570761	     89.35468363	    -17.97823291	     48.61699371	     58.91101226	     47.70303531	      0.00000000	      0.00000000	     76.53308556	    -24.31848446	     27.29819823	     58.20701782	     49.22283832	      0.00000000	      0.00000000
